# xmcd
#
# Track frame offsets: 
#        150
#        9602
#        26511
#        38860
#        57799
#        70095
#        83875
#        105665
#        124090
#        141162
#
# Disc length: 2106 seconds
#
# Revision: 0
# Processed by: cddbd v1.5.2PL0 Copyright (c) Steve Scherf et al.
# Submitted via: ExactAudioCopy v1.0b4
#
DISCID=7f08380a
DTITLE=Leo Welch - I Don't Prefer No Blues 
DYEAR=2015
DGENRE=Blues
TTITLE0=Poor Boy
TTITLE1=Girl in the Holler
TTITLE2=I Don’t Know Her Name
TTITLE3=Goin' Down Slow
TTITLE4=Cadillac Baby
TTITLE5=Too Much Wine
TTITLE6=I Woke Up
TTITLE7=So Many Turnrows
TTITLE8=Pray On
TTITLE9=Sweet Black Angel
EXTD=
EXTT0=
EXTT1=
EXTT2=
EXTT3=
EXTT4=
EXTT5=
EXTT6=
EXTT7=
EXTT8=
EXTT9=
PLAYORDER=
